# xmcd
#
# Track frame offsets:
#	150
#	20656
#	38323
#	57199
#	73691
#	82940
#	102949
#	128927
#	149465
#	163543
#	182159
#	209283
#	226224
#	246797
#	263653
#
# Disc length: 3757 seconds
#
# Revision: 2
# Processed by: cddbd v1.5.2PL0 Copyright (c) Steve Scherf et al.
# Submitted via: Rip'N'TagIt 1.5.0.0 
#
DISCID=c60eab0f
DTITLE=Various Artist - Perfect Love - Disc 3
DYEAR=1900
DGENRE=country
TTITLE0=I Want To Know What Love Is
TTITLE1=Eternal Flame
TTITLE2=Closest Thing To Crazy
TTITLE3=How Do I Live
TTITLE4=Ain't No Sunshine
TTITLE5=Unbreak My Heart
TTITLE6=Turn Off The Lights
TTITLE7=How 'Bout Us
TTITLE8=What The World Needs Now
TTITLE9=Everybody's Got To Learn Sometime
TTITLE10=Power Of Love
TTITLE11=Love Can Build A Bridge
TTITLE12=Move Closer
TTITLE13=Stay Another Day
TTITLE14=Heaven
EXTD=
EXTT0=
EXTT1=
EXTT2=
EXTT3=
EXTT4=
EXTT5=
EXTT6=
EXTT7=
EXTT8=
EXTT9=
EXTT10=
EXTT11=
EXTT12=
EXTT13=
EXTT14=
PLAYORDER=
